<?xml version="1.0" encoding="UTF-8" standalone="no"?>
<!-- Created with Inkscape (http://www.inkscape.org/) -->

<svg
   xmlns:dc="http://purl.org/dc/elements/1.1/"
   xmlns:cc="http://creativecommons.org/ns#"
   xmlns:rdf="http://www.w3.org/1999/02/22-rdf-syntax-ns#"
   xmlns:svg="http://www.w3.org/2000/svg"
   xmlns="http://www.w3.org/2000/svg"
   xmlns:sodipodi="http://sodipodi.sourceforge.net/DTD/sodipodi-0.dtd"
   xmlns:inkscape="http://www.inkscape.org/namespaces/inkscape"
   width="155.33862"
   height="243.0397"
   id="svg8898"
   version="1.1"
   inkscape:version="0.92.4 5da689c313, 2019-01-14"
   sodipodi:docname="musicStart.svg">
  <defs
     id="defs8900">
    <clipPath
       clipPathUnits="userSpaceOnUse"
       id="clipPath3856">
      <rect
         y="704.58411"
         x="-9.0354424"
         height="360"
         width="540"
         id="rect3858"
         style="fill:none;stroke:#000000;stroke-width:0.35433072;stroke-linecap:round;stroke-linejoin:round;stroke-miterlimit:4;stroke-dasharray:none;stroke-dashoffset:0;stroke-opacity:1" />
    </clipPath>
  </defs>
  <sodipodi:namedview
     id="base"
     pagecolor="#ffffff"
     bordercolor="#666666"
     borderopacity="1.0"
     inkscape:pageopacity="0.0"
     inkscape:pageshadow="2"
     inkscape:zoom="1.98"
     inkscape:cx="-78.699603"
     inkscape:cy="83.395176"
     inkscape:document-units="px"
     inkscape:current-layer="layer1-7"
     showgrid="false"
     units="in"
     inkscape:snap-bbox="false"
     inkscape:snap-global="true"
     inkscape:object-nodes="true"
     inkscape:snap-grids="true"
     inkscape:snap-page="false"
     inkscape:snap-to-guides="false"
     inkscape:object-paths="false"
     inkscape:window-width="1666"
     inkscape:window-height="989"
     inkscape:window-x="0"
     inkscape:window-y="0"
     inkscape:window-maximized="0">
    <inkscape:grid
       type="xygrid"
       id="grid9416"
       empspacing="4"
       visible="true"
       enabled="true"
       snapvisiblegridlinesonly="true"
       units="in"
       spacingx="6"
       spacingy="6"
       dotted="true"
       originx="-36.850365"
       originy="-317.66117" />
  </sodipodi:namedview>
  <metadata
     id="metadata8903">
    <rdf:RDF>
      <cc:Work
         rdf:about="">
        <dc:format>image/svg+xml</dc:format>
        <dc:type
           rdf:resource="http://purl.org/dc/dcmitype/StillImage" />
        <dc:title />
      </cc:Work>
    </rdf:RDF>
  </metadata>
  <g
     inkscape:label="Layer 1"
     inkscape:groupmode="layer"
     id="layer1"
     transform="translate(-36.850365,-561.8162)"
     style="display:inline">
    <g
       transform="translate(37.03936,-3685.7977)"
       id="layer1-7"
       inkscape:label="Layer 1"
       style="display:inline">
      <path
         style="fill:#999999;fill-opacity:1;stroke-width:1.06666672"
         inkscape:connector-curvature="0"
         d="m 106.95584,4349.9887 c -7.535632,0.759 -13.633957,-5.0252 -18.563472,-10.1478 -2.162123,-2.3269 -0.356747,-0.3859 -1.431787,-1.6022 1.154582,-0.2543 4.172416,-0.7431 5.085974,-0.6974 6.493365,0.3246 15.878495,5.7739 19.340105,10.5483 -1.39011,0.7691 -1.50195,1.4013 -4.43082,1.8991 z m -38.908699,1.6203 c 2.183808,-3.0664 2.757494,-7.0935 2.133195,-10.786 3.025067,-0.4761 6.050112,-0.9525 9.072757,-1.4287 5.613824,5.8505 12.129622,12.2122 20.583382,12.5456 5.379995,0.1469 11.259945,-0.6869 15.628095,-4.1763 -0.3091,-4.2322 -5.19685,-7.2166 -8.23516,-9.4626 -6.43697,-3.7057 -14.262098,-2.8408 -21.20309,-1.4187 -2.294699,-2.0145 -4.201323,-4.8026 -6.590027,-6.7882 -5.56321,-5.8641 -13.08849,-10.9724 -21.399552,-9.9671 -8.036288,0.4563 -15.508533,6.4447 -17.419978,14.6104 -0.759275,3.1004 -0.833995,6.3813 -0.238635,9.5179 -5.423392,0.5473 -11.157728,2.555 -16.422048,0.2301 -3.851808,-1.744 -7.240832,-6.9378 -5.283584,-10.7832 0.761685,-1.4919 0.122933,-0.283 0.607424,-1.1897 0.619467,2.6626 2.497163,4.9769 3.772267,5.625 3.52881,2.0852 8.771434,-0.9951 8.094112,-5.3646 -0.110816,-5.63 -7.56864,-7.9407 -11.292704,-4.3198 -3.663808,3.3521 -3.162454,9.5401 -0.766507,13.515 2.844267,4.5112 8.542432,5.0762 13.406635,4.561 1.63424,-0.1742 6.435765,-1.003 8.164021,-1.1051 0.600192,1.7348 0.142208,0.5202 1.082272,2.9693 2.538155,6.6205 10.265888,10.8441 17.16688,8.9452 3.540875,-0.7916 7.023915,-2.5986 9.140245,-5.7295 z m -13.876693,1.3962 c -4.799104,0.5326 -10.415339,-2.6208 -11.955584,-7.6633 1.916277,-0.3385 2.436928,-0.4281 3.555349,-0.6536 5.929568,-1.2002 12.020672,-1.8517 18.032203,-2.7777 0.40496,4.0435 -1.308843,8.6057 -5.264309,10.012 -1.390806,0.6072 -2.88527,0.8536 -4.367659,1.0826 z m -12.524437,-12.8144 c -0.339872,-6.332 3.844597,-12.4433 9.836853,-14.0232 5.189589,-1.8642 11.160149,-1.3149 15.677248,2.0426 4.102475,2.7754 7.484288,6.4874 10.950443,10.0268 -2.716512,0.4555 -5.433035,0.9109 -8.151968,1.3664 -1.884928,-7.4433 -11.389163,-12.4559 -17.959894,-8.0018 -1.841557,1.3251 -5.358336,4.9194 -3.938602,6.8831 1.646293,-2.7428 4.480938,-4.986 7.778368,-4.5037 3.090133,-0.2044 7.016672,3.4095 7.708448,6.5988 -6.915424,1.0912 -14.638358,2.3429 -21.556214,3.434 -0.241034,-1.2579 -0.344682,-2.5415 -0.344682,-3.823 z"
         id="path5107" />
      <g
         id="g6437">
        <path
           style="color:#000000;display:inline;overflow:visible;visibility:visible;fill:none;stroke:#000000;stroke-width:0.37795275;stroke-linecap:round;stroke-linejoin:round;stroke-miterlimit:4;stroke-dasharray:none;stroke-dashoffset:0;stroke-opacity:1;marker:none;enable-background:accumulate"
           d="m 24.566929,4248.1889 v 241.8898"
           id="path5784"
           inkscape:connector-curvature="0" />
        <path
           style="color:#000000;display:inline;overflow:visible;visibility:visible;fill:none;stroke:#000000;stroke-width:0.37795275;stroke-linecap:round;stroke-linejoin:round;stroke-miterlimit:4;stroke-dasharray:none;stroke-dashoffset:0;stroke-opacity:1;marker:none;enable-background:accumulate"
           d="m 130.3937,4248.1889 v 241.8898"
           id="path5786"
           inkscape:connector-curvature="0" />
        <path
           style="color:#000000;display:inline;overflow:visible;visibility:visible;fill:none;stroke:#000000;stroke-width:0.37795275;stroke-linecap:round;stroke-linejoin:round;stroke-miterlimit:4;stroke-dasharray:9.07086639, 9.07086639;stroke-dashoffset:0;stroke-opacity:1;marker:none;enable-background:accumulate"
           d="m 0,4248.1889 v 241.8897"
           id="path5788"
           inkscape:connector-curvature="0" />
        <path
           style="color:#000000;display:inline;overflow:visible;visibility:visible;fill:none;stroke:#000000;stroke-width:0.37795275;stroke-linecap:round;stroke-linejoin:round;stroke-miterlimit:4;stroke-dasharray:9.07086639, 9.07086639;stroke-dashoffset:0;stroke-opacity:1;marker:none;enable-background:accumulate"
           d="m 154.96063,4248.1889 v 241.8897"
           id="path5790"
           inkscape:connector-curvature="0" />
        <path
           inkscape:connector-curvature="0"
           id="path5792"
           d="m 32.125984,4248.1889 v 241.8897"
           style="color:#000000;display:inline;overflow:visible;visibility:visible;fill:none;stroke:#000000;stroke-width:0.37795275;stroke-linecap:round;stroke-linejoin:round;stroke-miterlimit:4;stroke-dasharray:none;stroke-dashoffset:0;stroke-opacity:1;marker:none;enable-background:accumulate" />
        <path
           style="color:#000000;display:inline;overflow:visible;visibility:visible;fill:none;stroke:#000000;stroke-width:1.1338582;stroke-linecap:round;stroke-linejoin:round;stroke-miterlimit:4;stroke-dasharray:none;stroke-dashoffset:0;stroke-opacity:1;marker:none;enable-background:accumulate"
           d="m 39.685039,4248.1889 v 241.8897"
           id="path5794"
           inkscape:connector-curvature="0" />
        <path
           inkscape:connector-curvature="0"
           id="path5796"
           d="m 47.244095,4248.1889 v 241.8897"
           style="color:#000000;display:inline;overflow:visible;visibility:visible;fill:none;stroke:#000000;stroke-width:0.37795275;stroke-linecap:round;stroke-linejoin:round;stroke-miterlimit:4;stroke-dasharray:none;stroke-dashoffset:0;stroke-opacity:1;marker:none;enable-background:accumulate" />
        <path
           style="color:#000000;display:inline;overflow:visible;visibility:visible;fill:none;stroke:#000000;stroke-width:1.1338582;stroke-linecap:round;stroke-linejoin:round;stroke-miterlimit:4;stroke-dasharray:none;stroke-dashoffset:0;stroke-opacity:1;marker:none;enable-background:accumulate"
           d="m 54.80315,4248.1889 v 241.8897"
           id="path5798"
           inkscape:connector-curvature="0" />
        <path
           inkscape:connector-curvature="0"
           id="path5800"
           d="m 62.362205,4248.1889 v 241.8897"
           style="color:#000000;display:inline;overflow:visible;visibility:visible;fill:none;stroke:#000000;stroke-width:0.37795275;stroke-linecap:round;stroke-linejoin:round;stroke-miterlimit:4;stroke-dasharray:none;stroke-dashoffset:0;stroke-opacity:1;marker:none;enable-background:accumulate" />
        <path
           style="color:#000000;display:inline;overflow:visible;visibility:visible;fill:none;stroke:#000000;stroke-width:1.1338582;stroke-linecap:round;stroke-linejoin:round;stroke-miterlimit:4;stroke-dasharray:none;stroke-dashoffset:0;stroke-opacity:1;marker:none;enable-background:accumulate"
           d="m 69.92126,4248.1889 v 241.8897"
           id="path5802"
           inkscape:connector-curvature="0" />
        <path
           inkscape:connector-curvature="0"
           id="path5804"
           d="m 77.480315,4248.1889 v 241.8897"
           style="color:#000000;display:inline;overflow:visible;visibility:visible;fill:none;stroke:#000000;stroke-width:0.37795275;stroke-linecap:round;stroke-linejoin:round;stroke-miterlimit:4;stroke-dasharray:none;stroke-dashoffset:0;stroke-opacity:1;marker:none;enable-background:accumulate" />
        <path
           style="color:#000000;display:inline;overflow:visible;visibility:visible;fill:none;stroke:#000000;stroke-width:1.1338582;stroke-linecap:round;stroke-linejoin:round;stroke-miterlimit:4;stroke-dasharray:none;stroke-dashoffset:0;stroke-opacity:1;marker:none;enable-background:accumulate"
           d="m 85.03937,4248.1889 v 241.8897"
           id="path5806"
           inkscape:connector-curvature="0" />
        <path
           inkscape:connector-curvature="0"
           id="path5808"
           d="m 92.598426,4248.1889 v 241.8897"
           style="color:#000000;display:inline;overflow:visible;visibility:visible;fill:none;stroke:#000000;stroke-width:0.37795275;stroke-linecap:round;stroke-linejoin:round;stroke-miterlimit:4;stroke-dasharray:none;stroke-dashoffset:0;stroke-opacity:1;marker:none;enable-background:accumulate" />
        <path
           style="color:#000000;display:inline;overflow:visible;visibility:visible;fill:none;stroke:#000000;stroke-width:1.1338582;stroke-linecap:round;stroke-linejoin:round;stroke-miterlimit:4;stroke-dasharray:none;stroke-dashoffset:0;stroke-opacity:1;marker:none;enable-background:accumulate"
           d="m 100.15748,4248.1889 v 241.8897"
           id="path5810"
           inkscape:connector-curvature="0" />
        <path
           inkscape:connector-curvature="0"
           id="path5812"
           d="m 107.71653,4248.1889 v 241.8897"
           style="color:#000000;display:inline;overflow:visible;visibility:visible;fill:none;stroke:#000000;stroke-width:0.37795275;stroke-linecap:round;stroke-linejoin:round;stroke-miterlimit:4;stroke-dasharray:none;stroke-dashoffset:0;stroke-opacity:1;marker:none;enable-background:accumulate" />
        <path
           style="color:#000000;display:inline;overflow:visible;visibility:visible;fill:none;stroke:#000000;stroke-width:0.37795275;stroke-linecap:round;stroke-linejoin:round;stroke-miterlimit:4;stroke-dasharray:none;stroke-dashoffset:0;stroke-opacity:1;marker:none;enable-background:accumulate"
           d="m 115.27559,4248.1889 v 241.8897"
           id="path5814"
           inkscape:connector-curvature="0" />
        <path
           inkscape:connector-curvature="0"
           id="path5816"
           d="m 122.83465,4248.1889 v 241.8897"
           style="color:#000000;display:inline;overflow:visible;visibility:visible;fill:none;stroke:#000000;stroke-width:0.37795275;stroke-linecap:round;stroke-linejoin:round;stroke-miterlimit:4;stroke-dasharray:none;stroke-dashoffset:0;stroke-opacity:1;marker:none;enable-background:accumulate" />
        <path
           style="color:#000000;display:inline;overflow:visible;visibility:visible;fill:none;stroke:#000000;stroke-width:1.1338582;stroke-linecap:round;stroke-linejoin:round;stroke-miterlimit:4;stroke-dasharray:none;stroke-dashoffset:0;stroke-opacity:1;marker:none;enable-background:accumulate"
           d="M 24.566929,4248.1889 H 130.3937"
           id="path6326"
           inkscape:connector-curvature="0" />
        <path
           style="color:#000000;display:inline;overflow:visible;visibility:visible;fill:none;stroke:#000000;stroke-width:1.1338582;stroke-linecap:round;stroke-linejoin:round;stroke-miterlimit:4;stroke-dasharray:none;stroke-dashoffset:0;stroke-opacity:1;marker:none;enable-background:accumulate"
           d="M 24.566929,4490.0787 H 130.3937"
           id="path6328"
           inkscape:connector-curvature="0" />
        <path
           inkscape:connector-curvature="0"
           id="path6330"
           d="M 24.566929,4308.6613 H 130.3937"
           style="color:#000000;display:inline;overflow:visible;visibility:visible;fill:none;stroke:#000000;stroke-width:1.1338582;stroke-linecap:round;stroke-linejoin:round;stroke-miterlimit:4;stroke-dasharray:none;stroke-dashoffset:0;stroke-opacity:1;marker:none;enable-background:accumulate" />
        <path
           style="color:#000000;display:inline;overflow:visible;visibility:visible;fill:none;stroke:#000000;stroke-width:1.1338582;stroke-linecap:round;stroke-linejoin:round;stroke-miterlimit:4;stroke-dasharray:none;stroke-dashoffset:0;stroke-opacity:1;marker:none;enable-background:accumulate"
           d="M 24.566929,4369.1338 H 130.3937"
           id="path6332"
           inkscape:connector-curvature="0" />
        <path
           style="color:#000000;display:inline;overflow:visible;visibility:visible;fill:none;stroke:#000000;stroke-width:1.1338582;stroke-linecap:round;stroke-linejoin:round;stroke-miterlimit:4;stroke-dasharray:none;stroke-dashoffset:0;stroke-opacity:1;marker:none;enable-background:accumulate"
           d="M 24.566933,4429.6062 H 130.3937"
           id="path6347"
           inkscape:connector-curvature="0" />
        <path
           style="color:#000000;display:inline;overflow:visible;visibility:visible;fill:none;stroke:#000000;stroke-width:0.37795275;stroke-linecap:round;stroke-linejoin:round;stroke-miterlimit:4;stroke-dasharray:none;stroke-dashoffset:0;stroke-opacity:1;marker:none;enable-background:accumulate"
           d="M 24.566929,4278.4251 H 130.3937"
           id="path6349"
           inkscape:connector-curvature="0" />
        <path
           inkscape:connector-curvature="0"
           id="path6351"
           d="M 24.566933,4338.8976 H 130.3937"
           style="color:#000000;display:inline;overflow:visible;visibility:visible;fill:none;stroke:#000000;stroke-width:0.37795275;stroke-linecap:round;stroke-linejoin:round;stroke-miterlimit:4;stroke-dasharray:none;stroke-dashoffset:0;stroke-opacity:1;marker:none;enable-background:accumulate" />
        <path
           style="color:#000000;display:inline;overflow:visible;visibility:visible;fill:none;stroke:#000000;stroke-width:0.37795275;stroke-linecap:round;stroke-linejoin:round;stroke-miterlimit:4;stroke-dasharray:none;stroke-dashoffset:0;stroke-opacity:1;marker:none;enable-background:accumulate"
           d="M 24.566938,4399.37 H 130.3937"
           id="path6353"
           inkscape:connector-curvature="0" />
        <path
           inkscape:connector-curvature="0"
           id="path6355"
           d="M 24.566942,4459.8425 H 130.3937"
           style="color:#000000;display:inline;overflow:visible;visibility:visible;fill:none;stroke:#000000;stroke-width:0.37795275;stroke-linecap:round;stroke-linejoin:round;stroke-miterlimit:4;stroke-dasharray:none;stroke-dashoffset:0;stroke-opacity:1;marker:none;enable-background:accumulate" />
        <path
           inkscape:connector-curvature="0"
           id="path6357"
           d="M 24.566929,4263.307 H 130.3937"
           style="color:#000000;display:inline;overflow:visible;visibility:visible;fill:none;stroke:#000000;stroke-width:0.37795275;stroke-linecap:round;stroke-linejoin:round;stroke-miterlimit:4;stroke-dasharray:1.51181106, 1.51181106;stroke-dashoffset:0.70866144;stroke-opacity:1;marker:none;enable-background:accumulate" />
        <path
           style="color:#000000;display:inline;overflow:visible;visibility:visible;fill:none;stroke:#000000;stroke-width:0.37795275;stroke-linecap:round;stroke-linejoin:round;stroke-miterlimit:4;stroke-dasharray:1.51181106, 1.51181106;stroke-dashoffset:0.70866144;stroke-opacity:1;marker:none;enable-background:accumulate"
           d="M 24.566929,4293.5433 H 130.3937"
           id="path6359"
           inkscape:connector-curvature="0" />
        <path
           style="color:#000000;display:inline;overflow:visible;visibility:visible;fill:none;stroke:#000000;stroke-width:0.37795275;stroke-linecap:round;stroke-linejoin:round;stroke-miterlimit:4;stroke-dasharray:1.51181106, 1.51181106;stroke-dashoffset:0.70866144;stroke-opacity:1;marker:none;enable-background:accumulate"
           d="M 24.566929,4323.7794 H 130.3937"
           id="path6377"
           inkscape:connector-curvature="0" />
        <path
           inkscape:connector-curvature="0"
           id="path6379"
           d="M 24.566929,4354.0157 H 130.3937"
           style="color:#000000;display:inline;overflow:visible;visibility:visible;fill:none;stroke:#000000;stroke-width:0.37795275;stroke-linecap:round;stroke-linejoin:round;stroke-miterlimit:4;stroke-dasharray:1.51181106, 1.51181106;stroke-dashoffset:0.70866144;stroke-opacity:1;marker:none;enable-background:accumulate" />
        <path
           style="color:#000000;display:inline;overflow:visible;visibility:visible;fill:none;stroke:#000000;stroke-width:0.37795275;stroke-linecap:round;stroke-linejoin:round;stroke-miterlimit:4;stroke-dasharray:1.51181106, 1.51181106;stroke-dashoffset:0.70866144;stroke-opacity:1;marker:none;enable-background:accumulate"
           d="M 24.566929,4384.2519 H 130.3937"
           id="path6381"
           inkscape:connector-curvature="0" />
        <path
           inkscape:connector-curvature="0"
           id="path6383"
           d="M 24.566929,4414.4882 H 130.3937"
           style="color:#000000;display:inline;overflow:visible;visibility:visible;fill:none;stroke:#000000;stroke-width:0.37795275;stroke-linecap:round;stroke-linejoin:round;stroke-miterlimit:4;stroke-dasharray:1.51181106, 1.51181106;stroke-dashoffset:0.70866144;stroke-opacity:1;marker:none;enable-background:accumulate" />
        <path
           inkscape:connector-curvature="0"
           id="path6385"
           d="M 24.566929,4444.7244 H 130.3937"
           style="color:#000000;display:inline;overflow:visible;visibility:visible;fill:none;stroke:#000000;stroke-width:0.37795275;stroke-linecap:round;stroke-linejoin:round;stroke-miterlimit:4;stroke-dasharray:1.51181106, 1.51181106;stroke-dashoffset:0.70866144;stroke-opacity:1;marker:none;enable-background:accumulate" />
        <path
           style="color:#000000;display:inline;overflow:visible;visibility:visible;fill:none;stroke:#000000;stroke-width:0.37795275;stroke-linecap:round;stroke-linejoin:round;stroke-miterlimit:4;stroke-dasharray:1.51181106, 1.51181106;stroke-dashoffset:0.70866144;stroke-opacity:1;marker:none;enable-background:accumulate"
           d="M 24.566929,4474.9606 H 130.3937"
           id="path6387"
           inkscape:connector-curvature="0" />
        <path
           style="color:#000000;display:inline;overflow:visible;visibility:visible;fill:none;stroke:#000000;stroke-width:0.30236223;stroke-linecap:butt;stroke-linejoin:miter;stroke-miterlimit:4;stroke-dasharray:0.30236222, 1.20944887;stroke-dashoffset:0.14173229;stroke-opacity:1;marker:none;enable-background:accumulate"
           d="M 24.566929,4255.7479 H 130.3937"
           id="path6389"
           inkscape:connector-curvature="0" />
        <path
           style="color:#000000;display:inline;overflow:visible;visibility:visible;fill:none;stroke:#000000;stroke-width:0.30236223;stroke-linecap:butt;stroke-linejoin:miter;stroke-miterlimit:4;stroke-dasharray:0.30236222, 1.20944887;stroke-dashoffset:0.14173229;stroke-opacity:1;marker:none;enable-background:accumulate"
           d="M 24.566929,4270.866 H 130.3937"
           id="path6389-9"
           inkscape:connector-curvature="0" />
        <path
           inkscape:connector-curvature="0"
           id="path6409"
           d="M 24.566929,4285.9842 H 130.3937"
           style="color:#000000;display:inline;overflow:visible;visibility:visible;fill:none;stroke:#000000;stroke-width:0.30236223;stroke-linecap:butt;stroke-linejoin:miter;stroke-miterlimit:4;stroke-dasharray:0.30236222, 1.20944887;stroke-dashoffset:0.14173229;stroke-opacity:1;marker:none;enable-background:accumulate" />
        <path
           inkscape:connector-curvature="0"
           id="path6411"
           d="M 24.566929,4301.1023 H 130.3937"
           style="color:#000000;display:inline;overflow:visible;visibility:visible;fill:none;stroke:#000000;stroke-width:0.30236223;stroke-linecap:butt;stroke-linejoin:miter;stroke-miterlimit:4;stroke-dasharray:0.30236222, 1.20944887;stroke-dashoffset:0.14173229;stroke-opacity:1;marker:none;enable-background:accumulate" />
        <path
           style="color:#000000;display:inline;overflow:visible;visibility:visible;fill:none;stroke:#000000;stroke-width:0.30236223;stroke-linecap:butt;stroke-linejoin:miter;stroke-miterlimit:4;stroke-dasharray:0.30236222, 1.20944887;stroke-dashoffset:0.14173229;stroke-opacity:1;marker:none;enable-background:accumulate"
           d="M 24.566929,4316.2205 H 130.3937"
           id="path6413"
           inkscape:connector-curvature="0" />
        <path
           style="color:#000000;display:inline;overflow:visible;visibility:visible;fill:none;stroke:#000000;stroke-width:0.30236223;stroke-linecap:butt;stroke-linejoin:miter;stroke-miterlimit:4;stroke-dasharray:0.30236222, 1.20944887;stroke-dashoffset:0.14173229;stroke-opacity:1;marker:none;enable-background:accumulate"
           d="M 24.566929,4331.3386 H 130.3937"
           id="path6415"
           inkscape:connector-curvature="0" />
        <path
           inkscape:connector-curvature="0"
           id="path6417"
           d="M 24.566929,4346.4566 H 130.3937"
           style="color:#000000;display:inline;overflow:visible;visibility:visible;fill:none;stroke:#000000;stroke-width:0.30236223;stroke-linecap:butt;stroke-linejoin:miter;stroke-miterlimit:4;stroke-dasharray:0.30236222, 1.20944887;stroke-dashoffset:0.14173229;stroke-opacity:1;marker:none;enable-background:accumulate" />
        <path
           inkscape:connector-curvature="0"
           id="path6419"
           d="M 24.566929,4361.5747 H 130.3937"
           style="color:#000000;display:inline;overflow:visible;visibility:visible;fill:none;stroke:#000000;stroke-width:0.30236223;stroke-linecap:butt;stroke-linejoin:miter;stroke-miterlimit:4;stroke-dasharray:0.30236222, 1.20944887;stroke-dashoffset:0.14173229;stroke-opacity:1;marker:none;enable-background:accumulate" />
        <path
           inkscape:connector-curvature="0"
           id="path6421"
           d="M 24.566929,4376.6928 H 130.3937"
           style="color:#000000;display:inline;overflow:visible;visibility:visible;fill:none;stroke:#000000;stroke-width:0.30236223;stroke-linecap:butt;stroke-linejoin:miter;stroke-miterlimit:4;stroke-dasharray:0.30236222, 1.20944887;stroke-dashoffset:0.14173229;stroke-opacity:1;marker:none;enable-background:accumulate" />
        <path
           inkscape:connector-curvature="0"
           id="path6423"
           d="M 24.566929,4391.8109 H 130.3937"
           style="color:#000000;display:inline;overflow:visible;visibility:visible;fill:none;stroke:#000000;stroke-width:0.30236223;stroke-linecap:butt;stroke-linejoin:miter;stroke-miterlimit:4;stroke-dasharray:0.30236222, 1.20944887;stroke-dashoffset:0.14173229;stroke-opacity:1;marker:none;enable-background:accumulate" />
        <path
           style="color:#000000;display:inline;overflow:visible;visibility:visible;fill:none;stroke:#000000;stroke-width:0.30236223;stroke-linecap:butt;stroke-linejoin:miter;stroke-miterlimit:4;stroke-dasharray:0.30236222, 1.20944887;stroke-dashoffset:0.14173229;stroke-opacity:1;marker:none;enable-background:accumulate"
           d="M 24.566929,4406.929 H 130.3937"
           id="path6425"
           inkscape:connector-curvature="0" />
        <path
           style="color:#000000;display:inline;overflow:visible;visibility:visible;fill:none;stroke:#000000;stroke-width:0.30236223;stroke-linecap:butt;stroke-linejoin:miter;stroke-miterlimit:4;stroke-dasharray:0.30236222, 1.20944887;stroke-dashoffset:0.14173229;stroke-opacity:1;marker:none;enable-background:accumulate"
           d="M 24.566929,4422.047 H 130.3937"
           id="path6427"
           inkscape:connector-curvature="0" />
        <path
           style="color:#000000;display:inline;overflow:visible;visibility:visible;fill:none;stroke:#000000;stroke-width:0.30236223;stroke-linecap:butt;stroke-linejoin:miter;stroke-miterlimit:4;stroke-dasharray:0.30236222, 1.20944887;stroke-dashoffset:0.14173229;stroke-opacity:1;marker:none;enable-background:accumulate"
           d="M 24.566929,4437.1653 H 130.3937"
           id="path6429"
           inkscape:connector-curvature="0" />
        <path
           style="color:#000000;display:inline;overflow:visible;visibility:visible;fill:none;stroke:#000000;stroke-width:0.30236223;stroke-linecap:butt;stroke-linejoin:miter;stroke-miterlimit:4;stroke-dasharray:0.30236222, 1.20944887;stroke-dashoffset:0.14173229;stroke-opacity:1;marker:none;enable-background:accumulate"
           d="M 24.566929,4452.2834 H 130.3937"
           id="path6431"
           inkscape:connector-curvature="0" />
        <path
           inkscape:connector-curvature="0"
           id="path6433"
           d="M 24.566929,4467.4015 H 130.3937"
           style="color:#000000;display:inline;overflow:visible;visibility:visible;fill:none;stroke:#000000;stroke-width:0.30236223;stroke-linecap:butt;stroke-linejoin:miter;stroke-miterlimit:4;stroke-dasharray:0.30236222, 1.20944887;stroke-dashoffset:0.14173229;stroke-opacity:1;marker:none;enable-background:accumulate" />
        <path
           inkscape:connector-curvature="0"
           id="path6435"
           d="M 24.566929,4482.5196 H 130.3937"
           style="color:#000000;display:inline;overflow:visible;visibility:visible;fill:none;stroke:#000000;stroke-width:0.30236223;stroke-linecap:butt;stroke-linejoin:miter;stroke-miterlimit:4;stroke-dasharray:0.30236222, 1.20944887;stroke-dashoffset:0.14173229;stroke-opacity:1;marker:none;enable-background:accumulate" />
      </g>
      <g
         transform="translate(-1.6660515e-6,94.488068)"
         id="g6621">
        <path
           style="fill:none;stroke:none;stroke-width:1.06666672"
           d="M 17.007868,4199.0552 H 137.95276 v 15.1182 H 17.007868 Z"
           id="rect6491"
           inkscape:connector-curvature="0" />
        <path
           style="fill:#ffffff;fill-opacity:1;stroke:none;stroke-width:1.06666672"
           d="M 18.897636,4200.9448 H 136.063 v 11.3386 H 18.897636 Z"
           id="rect6553"
           inkscape:connector-curvature="0" />
        <g
           aria-label="C"
           style="color:#000000;font-style:normal;font-variant:normal;font-weight:normal;font-stretch:normal;font-size:12.80000019px;line-height:0%;font-family:Arial;-inkscape-font-specification:Arial;text-indent:0;text-align:center;text-decoration:none;text-decoration-line:none;letter-spacing:0px;word-spacing:0px;text-transform:none;writing-mode:lr-tb;direction:ltr;baseline-shift:baseline;text-anchor:middle;display:inline;overflow:visible;visibility:visible;fill:#000000;fill-opacity:1;fill-rule:nonzero;stroke:none;stroke-width:1.06666672;marker:none;enable-background:accumulate"
           id="text6493">
          <path
             d="m 26.983594,4207.7165 1.010416,0.2552 q -0.317708,1.2448 -1.145833,1.901 -0.822917,0.6511 -2.015625,0.6511 -1.234375,0 -2.010417,-0.5 -0.770833,-0.5052 -1.177083,-1.4584 -0.401042,-0.9531 -0.401042,-2.0468 0,-1.1928 0.453125,-2.0782 0.458334,-0.8906 1.296875,-1.3489 0.84375,-0.4636 1.854167,-0.4636 1.145833,0 1.927083,0.5834 0.78125,0.5833 1.088542,1.6406 l -0.994792,0.2344 q -0.265625,-0.8334 -0.770833,-1.2136 -0.505208,-0.3802 -1.270833,-0.3802 -0.880209,0 -1.473959,0.4219 -0.588541,0.4219 -0.828125,1.1354 -0.239583,0.7083 -0.239583,1.4635 0,0.974 0.28125,1.7032 0.286458,0.7239 0.885417,1.0833 0.598958,0.3594 1.296875,0.3594 0.848958,0 1.4375,-0.4896 0.588541,-0.4896 0.796875,-1.4531 z"
             style="font-size:10.66666698px;line-height:1.25;stroke-width:1.06666672"
             id="path904"
             inkscape:connector-curvature="0" />
        </g>
        <g
           aria-label="C"
           style="color:#000000;font-style:normal;font-variant:normal;font-weight:normal;font-stretch:normal;font-size:12.80000019px;line-height:0%;font-family:Arial;-inkscape-font-specification:Arial;text-indent:0;text-align:center;text-decoration:none;text-decoration-line:none;letter-spacing:0px;word-spacing:0px;text-transform:none;writing-mode:lr-tb;direction:ltr;baseline-shift:baseline;text-anchor:middle;display:inline;overflow:visible;visibility:visible;fill:#000000;fill-opacity:1;fill-rule:nonzero;stroke:none;stroke-width:1.06666672;marker:none;enable-background:accumulate"
           id="text6497">
          <path
             d="m 79.896983,4207.7165 1.010417,0.2552 q -0.317709,1.2448 -1.145834,1.901 -0.822916,0.6511 -2.015625,0.6511 -1.234375,0 -2.010417,-0.5 -0.770833,-0.5052 -1.177083,-1.4584 -0.401042,-0.9531 -0.401042,-2.0468 0,-1.1928 0.453125,-2.0782 0.458334,-0.8906 1.296875,-1.3489 0.84375,-0.4636 1.854167,-0.4636 1.145834,0 1.927084,0.5834 0.78125,0.5833 1.088541,1.6406 l -0.994791,0.2344 q -0.265625,-0.8334 -0.770834,-1.2136 -0.505208,-0.3802 -1.270833,-0.3802 -0.880209,0 -1.473959,0.4219 -0.588541,0.4219 -0.828125,1.1354 -0.239583,0.7083 -0.239583,1.4635 0,0.974 0.28125,1.7032 0.286458,0.7239 0.885417,1.0833 0.598958,0.3594 1.296875,0.3594 0.848958,0 1.4375,-0.4896 0.588542,-0.4896 0.796875,-1.4531 z"
             style="font-size:10.66666698px;line-height:1.25;stroke-width:1.06666672"
             id="path907"
             inkscape:connector-curvature="0" />
        </g>
        <g
           aria-label="C"
           style="color:#000000;font-style:normal;font-variant:normal;font-weight:normal;font-stretch:normal;font-size:12.80000019px;line-height:0%;font-family:Arial;-inkscape-font-specification:Arial;text-indent:0;text-align:center;text-decoration:none;text-decoration-line:none;letter-spacing:0px;word-spacing:0px;text-transform:none;writing-mode:lr-tb;direction:ltr;baseline-shift:baseline;text-anchor:middle;display:inline;overflow:visible;visibility:visible;fill:#000000;fill-opacity:1;fill-rule:nonzero;stroke:none;stroke-width:1.06666672;marker:none;enable-background:accumulate"
           id="text6501">
          <path
             d="m 132.81036,4207.7165 1.01042,0.2552 q -0.31771,1.2448 -1.14584,1.901 -0.82291,0.6511 -2.01562,0.6511 -1.23438,0 -2.01042,-0.5 -0.77083,-0.5052 -1.17708,-1.4584 -0.40104,-0.9531 -0.40104,-2.0468 0,-1.1928 0.45312,-2.0782 0.45833,-0.8906 1.29688,-1.3489 0.84375,-0.4636 1.85416,-0.4636 1.14584,0 1.92709,0.5834 0.78125,0.5833 1.08854,1.6406 l -0.99479,0.2344 q -0.26563,-0.8334 -0.77084,-1.2136 -0.50521,-0.3802 -1.27083,-0.3802 -0.88021,0 -1.47396,0.4219 -0.58854,0.4219 -0.82812,1.1354 -0.23959,0.7083 -0.23959,1.4635 0,0.974 0.28125,1.7032 0.28646,0.7239 0.88542,1.0833 0.59896,0.3594 1.29687,0.3594 0.84896,0 1.4375,-0.4896 0.58855,-0.4896 0.79688,-1.4531 z"
             style="font-size:10.66666698px;line-height:1.25;stroke-width:1.06666672"
             id="path910"
             inkscape:connector-curvature="0" />
        </g>
        <g
           aria-label="D"
           style="color:#000000;font-style:normal;font-variant:normal;font-weight:normal;font-stretch:normal;font-size:12.80000019px;line-height:0%;font-family:Arial;-inkscape-font-specification:Arial;text-indent:0;text-align:center;text-decoration:none;text-decoration-line:none;letter-spacing:0px;word-spacing:0px;text-transform:none;writing-mode:lr-tb;direction:ltr;baseline-shift:baseline;text-anchor:middle;display:inline;overflow:visible;visibility:visible;fill:#000000;fill-opacity:1;fill-rule:nonzero;stroke:none;stroke-width:1.06666672;marker:none;enable-background:accumulate"
           id="text6505">
          <path
             d="m 29.094734,4210.3936 v -7.6355 h 2.630209 q 0.890625,0 1.359375,0.1094 0.65625,0.1511 1.119791,0.5469 0.604167,0.5104 0.901042,1.3073 0.302083,0.7916 0.302083,1.8125 0,0.8698 -0.203125,1.5416 -0.203125,0.6719 -0.520833,1.1146 -0.317708,0.4375 -0.697917,0.6927 -0.375,0.25 -0.911458,0.3802 -0.53125,0.1303 -1.223958,0.1303 z m 1.010417,-0.9011 h 1.630208 q 0.755209,0 1.182292,-0.1406 0.432292,-0.1406 0.6875,-0.3958 0.359375,-0.3594 0.557292,-0.9636 0.203125,-0.6094 0.203125,-1.4739 0,-1.198 -0.395834,-1.8386 -0.390625,-0.6458 -0.953125,-0.8646 -0.40625,-0.1562 -1.307291,-0.1562 h -1.604167 z"
             style="font-size:10.66666698px;line-height:1.25;stroke-width:1.06666672"
             id="path913"
             inkscape:connector-curvature="0" />
        </g>
        <g
           aria-label="E"
           style="color:#000000;font-style:normal;font-variant:normal;font-weight:normal;font-stretch:normal;font-size:12.80000019px;line-height:0%;font-family:Arial;-inkscape-font-specification:Arial;text-indent:0;text-align:center;text-decoration:none;text-decoration-line:none;letter-spacing:0px;word-spacing:0px;text-transform:none;writing-mode:lr-tb;direction:ltr;baseline-shift:baseline;text-anchor:middle;display:inline;overflow:visible;visibility:visible;fill:#000000;fill-opacity:1;fill-rule:nonzero;stroke:none;stroke-width:1.06666672;marker:none;enable-background:accumulate"
           id="text6509">
          <path
             d="m 36.966289,4210.3936 v -7.6355 h 5.520834 v 0.9011 h -4.510417 v 2.3385 h 4.223959 v 0.8959 h -4.223959 v 2.5989 h 4.6875 v 0.9011 z"
             style="font-size:10.66666698px;line-height:1.25;stroke-width:1.06666672"
             id="path916"
             inkscape:connector-curvature="0" />
        </g>
        <g
           aria-label="F"
           style="color:#000000;font-style:normal;font-variant:normal;font-weight:normal;font-stretch:normal;font-size:12.80000019px;line-height:0%;font-family:Arial;-inkscape-font-specification:Arial;text-indent:0;text-align:center;text-decoration:none;text-decoration-line:none;letter-spacing:0px;word-spacing:0px;text-transform:none;writing-mode:lr-tb;direction:ltr;baseline-shift:baseline;text-anchor:middle;display:inline;overflow:visible;visibility:visible;fill:#000000;fill-opacity:1;fill-rule:nonzero;stroke:none;stroke-width:1.06666672;marker:none;enable-background:accumulate"
           id="text6513">
          <path
             d="m 44.858678,4210.3936 v -7.6355 h 5.151042 v 0.9011 h -4.140625 v 2.3646 h 3.583333 v 0.901 h -3.583333 v 3.4688 z"
             style="font-size:10.66666698px;line-height:1.25;stroke-width:1.06666672"
             id="path919"
             inkscape:connector-curvature="0" />
        </g>
        <g
           aria-label="G"
           style="color:#000000;font-style:normal;font-variant:normal;font-weight:normal;font-stretch:normal;font-size:12.80000019px;line-height:0%;font-family:Arial;-inkscape-font-specification:Arial;text-indent:0;text-align:center;text-decoration:none;text-decoration-line:none;letter-spacing:0px;word-spacing:0px;text-transform:none;writing-mode:lr-tb;direction:ltr;baseline-shift:baseline;text-anchor:middle;display:inline;overflow:visible;visibility:visible;fill:#000000;fill-opacity:1;fill-rule:nonzero;stroke:none;stroke-width:1.06666672;marker:none;enable-background:accumulate"
           id="text6517">
          <path
             d="m 55.05315,4207.3988 v -0.8959 l 3.234375,-0.01 v 2.8334 q -0.744791,0.5937 -1.536458,0.8958 -0.791667,0.2969 -1.625,0.2969 -1.125,0 -2.046875,-0.4792 -0.916667,-0.4844 -1.385417,-1.3958 -0.46875,-0.9115 -0.46875,-2.0365 0,-1.1146 0.463542,-2.0781 0.46875,-0.9688 1.34375,-1.4375 0.875,-0.4688 2.015625,-0.4688 0.828125,0 1.494792,0.2709 0.671875,0.2656 1.052083,0.7448 0.380208,0.4791 0.578125,1.25 l -0.911458,0.25 q -0.171875,-0.5834 -0.427084,-0.9167 -0.255208,-0.3333 -0.729166,-0.5313 -0.473959,-0.2031 -1.052084,-0.2031 -0.692708,0 -1.197917,0.2136 -0.505208,0.2083 -0.817708,0.552 -0.307292,0.3438 -0.479167,0.7552 -0.291666,0.7084 -0.291666,1.5365 0,1.0208 0.348958,1.7083 0.354167,0.6875 1.026042,1.0209 0.671875,0.3333 1.427083,0.3333 0.65625,0 1.28125,-0.25 0.625,-0.2552 0.947917,-0.5417 v -1.4218 z"
             style="font-size:10.66666698px;line-height:1.25;stroke-width:1.06666672"
             id="path922"
             inkscape:connector-curvature="0" />
        </g>
        <g
           aria-label="A"
           style="color:#000000;font-style:normal;font-variant:normal;font-weight:normal;font-stretch:normal;font-size:12.80000019px;line-height:0%;font-family:Arial;-inkscape-font-specification:Arial;text-indent:0;text-align:center;text-decoration:none;text-decoration-line:none;letter-spacing:0px;word-spacing:0px;text-transform:none;writing-mode:lr-tb;direction:ltr;baseline-shift:baseline;text-anchor:middle;display:inline;overflow:visible;visibility:visible;fill:#000000;fill-opacity:1;fill-rule:nonzero;stroke:none;stroke-width:1.06666672;marker:none;enable-background:accumulate"
           id="text6521">
          <path
             d="m 58.784077,4210.3936 2.932291,-7.6355 h 1.088542 l 3.125,7.6355 h -1.151042 l -0.890625,-2.3125 h -3.192708 l -0.838542,2.3125 z m 2.203125,-3.1355 h 2.588541 l -0.796875,-2.1145 q -0.364583,-0.9636 -0.541666,-1.5834 -0.145834,0.7344 -0.411459,1.4584 z"
             style="font-size:10.66666698px;line-height:1.25;stroke-width:1.06666672"
             id="path925"
             inkscape:connector-curvature="0" />
        </g>
        <g
           aria-label="B"
           style="color:#000000;font-style:normal;font-variant:normal;font-weight:normal;font-stretch:normal;font-size:12.80000019px;line-height:0%;font-family:Arial;-inkscape-font-specification:Arial;text-indent:0;text-align:center;text-decoration:none;text-decoration-line:none;letter-spacing:0px;word-spacing:0px;text-transform:none;writing-mode:lr-tb;direction:ltr;baseline-shift:baseline;text-anchor:middle;display:inline;overflow:visible;visibility:visible;fill:#000000;fill-opacity:1;fill-rule:nonzero;stroke:none;stroke-width:1.06666672;marker:none;enable-background:accumulate"
           id="text6525">
          <path
             d="m 67.140007,4210.3936 v -7.6355 h 2.864583 q 0.875,0 1.401042,0.2344 0.53125,0.2292 0.828125,0.7136 0.302083,0.4791 0.302083,1.0052 0,0.4895 -0.265625,0.9218 -0.265625,0.4323 -0.802083,0.698 0.692708,0.2031 1.0625,0.6927 0.375,0.4895 0.375,1.1562 0,0.5365 -0.229167,1 -0.223958,0.4583 -0.557291,0.7083 -0.333334,0.25 -0.838542,0.3803 -0.5,0.125 -1.229167,0.125 z m 1.010417,-4.4271 h 1.651041 q 0.671875,0 0.963542,-0.089 0.385417,-0.1146 0.578125,-0.3802 0.197917,-0.2656 0.197917,-0.6666 0,-0.3803 -0.182292,-0.6667 -0.182292,-0.2917 -0.520833,-0.3958 -0.338542,-0.1094 -1.161459,-0.1094 h -1.526041 z m 0,3.526 h 1.901041 q 0.489584,0 0.6875,-0.036 0.348959,-0.062 0.583334,-0.2084 0.234375,-0.1458 0.385416,-0.4219 0.151042,-0.2812 0.151042,-0.6458 0,-0.4271 -0.21875,-0.7396 -0.21875,-0.3177 -0.609375,-0.4427 -0.385417,-0.1302 -1.114583,-0.1302 h -1.765625 z"
             style="font-size:10.66666698px;line-height:1.25;stroke-width:1.06666672"
             id="path928"
             inkscape:connector-curvature="0" />
        </g>
        <g
           aria-label="D"
           style="color:#000000;font-style:normal;font-variant:normal;font-weight:normal;font-stretch:normal;font-size:12.80000019px;line-height:0%;font-family:Arial;-inkscape-font-specification:Arial;text-indent:0;text-align:center;text-decoration:none;text-decoration-line:none;letter-spacing:0px;word-spacing:0px;text-transform:none;writing-mode:lr-tb;direction:ltr;baseline-shift:baseline;text-anchor:middle;display:inline;overflow:visible;visibility:visible;fill:#000000;fill-opacity:1;fill-rule:nonzero;stroke:none;stroke-width:1.06666672;marker:none;enable-background:accumulate"
           id="text6529">
          <path
             d="m 82.008125,4210.3936 v -7.6355 h 2.630209 q 0.890625,0 1.359375,0.1094 0.65625,0.1511 1.119791,0.5469 0.604167,0.5104 0.901042,1.3073 0.302083,0.7916 0.302083,1.8125 0,0.8698 -0.203125,1.5416 -0.203125,0.6719 -0.520833,1.1146 -0.317708,0.4375 -0.697917,0.6927 -0.375,0.25 -0.911458,0.3802 -0.53125,0.1303 -1.223958,0.1303 z m 1.010417,-0.9011 h 1.630208 q 0.755209,0 1.182292,-0.1406 0.432292,-0.1406 0.6875,-0.3958 0.359375,-0.3594 0.557292,-0.9636 0.203125,-0.6094 0.203125,-1.4739 0,-1.198 -0.395834,-1.8386 -0.390625,-0.6458 -0.953125,-0.8646 -0.40625,-0.1562 -1.307291,-0.1562 h -1.604167 z"
             style="font-size:10.66666698px;line-height:1.25;stroke-width:1.06666672"
             id="path931"
             inkscape:connector-curvature="0" />
        </g>
        <g
           aria-label="E"
           style="color:#000000;font-style:normal;font-variant:normal;font-weight:normal;font-stretch:normal;font-size:12.80000019px;line-height:0%;font-family:Arial;-inkscape-font-specification:Arial;text-indent:0;text-align:center;text-decoration:none;text-decoration-line:none;letter-spacing:0px;word-spacing:0px;text-transform:none;writing-mode:lr-tb;direction:ltr;baseline-shift:baseline;text-anchor:middle;display:inline;overflow:visible;visibility:visible;fill:#000000;fill-opacity:1;fill-rule:nonzero;stroke:none;stroke-width:1.06666672;marker:none;enable-background:accumulate"
           id="text6533">
          <path
             d="m 89.879669,4210.3936 v -7.6355 h 5.520834 v 0.9011 h -4.510417 v 2.3385 h 4.223958 v 0.8959 h -4.223958 v 2.5989 h 4.6875 v 0.9011 z"
             style="font-size:10.66666698px;line-height:1.25;stroke-width:1.06666672"
             id="path934"
             inkscape:connector-curvature="0" />
        </g>
        <g
           aria-label="F"
           style="color:#000000;font-style:normal;font-variant:normal;font-weight:normal;font-stretch:normal;font-size:12.80000019px;line-height:0%;font-family:Arial;-inkscape-font-specification:Arial;text-indent:0;text-align:center;text-decoration:none;text-decoration-line:none;letter-spacing:0px;word-spacing:0px;text-transform:none;writing-mode:lr-tb;direction:ltr;baseline-shift:baseline;text-anchor:middle;display:inline;overflow:visible;visibility:visible;fill:#000000;fill-opacity:1;fill-rule:nonzero;stroke:none;stroke-width:1.06666672;marker:none;enable-background:accumulate"
           id="text6537">
          <path
             d="m 97.772062,4210.3936 v -7.6355 h 5.151038 v 0.9011 h -4.140622 v 2.3646 h 3.583332 v 0.901 h -3.583332 v 3.4688 z"
             style="font-size:10.66666698px;line-height:1.25;stroke-width:1.06666672"
             id="path937"
             inkscape:connector-curvature="0" />
        </g>
        <g
           aria-label="G"
           style="color:#000000;font-style:normal;font-variant:normal;font-weight:normal;font-stretch:normal;font-size:12.80000019px;line-height:0%;font-family:Arial;-inkscape-font-specification:Arial;text-indent:0;text-align:center;text-decoration:none;text-decoration-line:none;letter-spacing:0px;word-spacing:0px;text-transform:none;writing-mode:lr-tb;direction:ltr;baseline-shift:baseline;text-anchor:middle;display:inline;overflow:visible;visibility:visible;fill:#000000;fill-opacity:1;fill-rule:nonzero;stroke:none;stroke-width:1.06666672;marker:none;enable-background:accumulate"
           id="text6541">
          <path
             d="m 107.96654,4207.3988 v -0.8959 l 3.23437,-0.01 v 2.8334 q -0.74479,0.5937 -1.53646,0.8958 -0.79166,0.2969 -1.625,0.2969 -1.125,0 -2.04687,-0.4792 -0.91667,-0.4844 -1.38542,-1.3958 -0.46875,-0.9115 -0.46875,-2.0365 0,-1.1146 0.46354,-2.0781 0.46875,-0.9688 1.34375,-1.4375 0.875,-0.4688 2.01563,-0.4688 0.82812,0 1.49479,0.2709 0.67188,0.2656 1.05208,0.7448 0.38021,0.4791 0.57813,1.25 l -0.91146,0.25 q -0.17187,-0.5834 -0.42708,-0.9167 -0.25521,-0.3333 -0.72917,-0.5313 -0.47396,-0.2031 -1.05208,-0.2031 -0.69271,0 -1.19792,0.2136 -0.50521,0.2083 -0.81771,0.552 -0.30729,0.3438 -0.47916,0.7552 -0.29167,0.7084 -0.29167,1.5365 0,1.0208 0.34896,1.7083 0.35416,0.6875 1.02604,1.0209 0.67187,0.3333 1.42708,0.3333 0.65625,0 1.28125,-0.25 0.625,-0.2552 0.94792,-0.5417 v -1.4218 z"
             style="font-size:10.66666698px;line-height:1.25;stroke-width:1.06666672"
             id="path940"
             inkscape:connector-curvature="0" />
        </g>
        <g
           aria-label="A"
           style="color:#000000;font-style:normal;font-variant:normal;font-weight:normal;font-stretch:normal;font-size:12.80000019px;line-height:0%;font-family:Arial;-inkscape-font-specification:Arial;text-indent:0;text-align:center;text-decoration:none;text-decoration-line:none;letter-spacing:0px;word-spacing:0px;text-transform:none;writing-mode:lr-tb;direction:ltr;baseline-shift:baseline;text-anchor:middle;display:inline;overflow:visible;visibility:visible;fill:#000000;fill-opacity:1;fill-rule:nonzero;stroke:none;stroke-width:1.06666672;marker:none;enable-background:accumulate"
           id="text6545">
          <path
             d="m 111.69746,4210.3936 2.9323,-7.6355 h 1.08854 l 3.125,7.6355 h -1.15104 l -0.89063,-2.3125 h -3.19271 l -0.83854,2.3125 z m 2.20313,-3.1355 h 2.58854 l -0.79687,-2.1145 q -0.36459,-0.9636 -0.54167,-1.5834 -0.14583,0.7344 -0.41146,1.4584 z"
             style="font-size:10.66666698px;line-height:1.25;stroke-width:1.06666672"
             id="path943"
             inkscape:connector-curvature="0" />
        </g>
        <g
           aria-label="B"
           style="color:#000000;font-style:normal;font-variant:normal;font-weight:normal;font-stretch:normal;font-size:12.80000019px;line-height:0%;font-family:Arial;-inkscape-font-specification:Arial;text-indent:0;text-align:center;text-decoration:none;text-decoration-line:none;letter-spacing:0px;word-spacing:0px;text-transform:none;writing-mode:lr-tb;direction:ltr;baseline-shift:baseline;text-anchor:middle;display:inline;overflow:visible;visibility:visible;fill:#000000;fill-opacity:1;fill-rule:nonzero;stroke:none;stroke-width:1.06666672;marker:none;enable-background:accumulate"
           id="text6549">
          <path
             d="m 120.05339,4210.3936 v -7.6355 h 2.86458 q 0.875,0 1.40105,0.2344 0.53125,0.2292 0.82812,0.7136 0.30208,0.4791 0.30208,1.0052 0,0.4895 -0.26562,0.9218 -0.26563,0.4323 -0.80208,0.698 0.6927,0.2031 1.0625,0.6927 0.375,0.4895 0.375,1.1562 0,0.5365 -0.22917,1 -0.22396,0.4583 -0.55729,0.7083 -0.33334,0.25 -0.83854,0.3803 -0.5,0.125 -1.22917,0.125 z m 1.01042,-4.4271 h 1.65104 q 0.67187,0 0.96354,-0.089 0.38542,-0.1146 0.57813,-0.3802 0.19791,-0.2656 0.19791,-0.6666 0,-0.3803 -0.18229,-0.6667 -0.18229,-0.2917 -0.52083,-0.3958 -0.33854,-0.1094 -1.16146,-0.1094 h -1.52604 z m 0,3.526 h 1.90104 q 0.48958,0 0.6875,-0.036 0.34896,-0.062 0.58333,-0.2084 0.23438,-0.1458 0.38542,-0.4219 0.15104,-0.2812 0.15104,-0.6458 0,-0.4271 -0.21875,-0.7396 -0.21875,-0.3177 -0.60937,-0.4427 -0.38542,-0.1302 -1.11459,-0.1302 h -1.76562 z"
             style="font-size:10.66666698px;line-height:1.25;stroke-width:1.06666672"
             id="path946"
             inkscape:connector-curvature="0" />
        </g>
      </g>
      <path
         style="color:#000000;display:inline;overflow:visible;visibility:visible;fill:#999999;fill-opacity:1;stroke:none;stroke-width:68.26583099;marker:none;enable-background:accumulate"
         class="class004"
         inkscape:connector-curvature="0"
         id="path5025"
         d="m 69.921253,4278.4251 7.559062,-15.1181 7.55905,15.1181 z" />
    </g>
  </g>
</svg>
