<?xml version="1.0" encoding="UTF-8" standalone="no"?>
<!-- Created with Inkscape (http://www.inkscape.org/) -->

<svg
   xmlns:dc="http://purl.org/dc/elements/1.1/"
   xmlns:cc="http://creativecommons.org/ns#"
   xmlns:rdf="http://www.w3.org/1999/02/22-rdf-syntax-ns#"
   xmlns:svg="http://www.w3.org/2000/svg"
   xmlns="http://www.w3.org/2000/svg"
   xmlns:sodipodi="http://sodipodi.sourceforge.net/DTD/sodipodi-0.dtd"
   xmlns:inkscape="http://www.inkscape.org/namespaces/inkscape"
   width="120.94489"
   height="15.1182"
   id="svg8898"
   version="1.1"
   inkscape:version="0.92.4 5da689c313, 2019-01-14"
   sodipodi:docname="notes.svg">
  <defs
     id="defs8900">
    <clipPath
       clipPathUnits="userSpaceOnUse"
       id="clipPath3856">
      <rect
         y="704.58411"
         x="-9.0354424"
         height="360"
         width="540"
         id="rect3858"
         style="fill:none;stroke:#000000;stroke-width:0.35433072;stroke-linecap:round;stroke-linejoin:round;stroke-miterlimit:4;stroke-dasharray:none;stroke-dashoffset:0;stroke-opacity:1" />
    </clipPath>
  </defs>
  <sodipodi:namedview
     id="base"
     pagecolor="#ffffff"
     bordercolor="#666666"
     borderopacity="1.0"
     inkscape:pageopacity="0.0"
     inkscape:pageshadow="2"
     inkscape:zoom="1.98"
     inkscape:cx="-102.71465"
     inkscape:cy="-98.596959"
     inkscape:document-units="px"
     inkscape:current-layer="layer1-7"
     showgrid="false"
     units="in"
     inkscape:snap-bbox="false"
     inkscape:snap-global="true"
     inkscape:object-nodes="true"
     inkscape:snap-grids="true"
     inkscape:snap-page="false"
     inkscape:snap-to-guides="false"
     inkscape:object-paths="false"
     inkscape:window-width="1666"
     inkscape:window-height="989"
     inkscape:window-x="0"
     inkscape:window-y="0"
     inkscape:window-maximized="0">
    <inkscape:grid
       type="xygrid"
       id="grid9416"
       empspacing="4"
       visible="true"
       enabled="true"
       snapvisiblegridlinesonly="true"
       units="in"
       spacingx="6"
       spacingy="6"
       dotted="true"
       originx="-54.047226"
       originy="-499.65331" />
  </sodipodi:namedview>
  <metadata
     id="metadata8903">
    <rdf:RDF>
      <cc:Work
         rdf:about="">
        <dc:format>image/svg+xml</dc:format>
        <dc:type
           rdf:resource="http://purl.org/dc/dcmitype/StillImage" />
        <dc:title></dc:title>
      </cc:Work>
    </rdf:RDF>
  </metadata>
  <g
     inkscape:label="Layer 1"
     inkscape:groupmode="layer"
     id="layer1"
     transform="translate(-54.047226,-607.74557)"
     style="display:inline">
    <g
       transform="translate(37.03936,-3685.7977)"
       id="layer1-7"
       inkscape:label="Layer 1"
       style="display:inline">
      <g
         transform="translate(-1.6660515e-6,94.488068)"
         id="g6621">
        <path
           style="fill:none;stroke:none;stroke-width:1.06666672"
           d="M 17.007868,4199.0552 H 137.95276 v 15.1182 H 17.007868 Z"
           id="rect6491"
           inkscape:connector-curvature="0" />
        <path
           style="fill:#ffffff;fill-opacity:1;stroke:none;stroke-width:1.06666672"
           d="M 18.897636,4200.9448 H 136.063 v 11.3386 H 18.897636 Z"
           id="rect6553"
           inkscape:connector-curvature="0" />
        <g
           aria-label="C"
           style="color:#000000;font-style:normal;font-variant:normal;font-weight:normal;font-stretch:normal;font-size:12.80000019px;line-height:0%;font-family:Arial;-inkscape-font-specification:Arial;text-indent:0;text-align:center;text-decoration:none;text-decoration-line:none;letter-spacing:0px;word-spacing:0px;text-transform:none;writing-mode:lr-tb;direction:ltr;baseline-shift:baseline;text-anchor:middle;display:inline;overflow:visible;visibility:visible;fill:#000000;fill-opacity:1;fill-rule:nonzero;stroke:none;stroke-width:1.06666672;marker:none;enable-background:accumulate"
           id="text6493">
          <path
             d="m 26.983594,4207.7165 1.010416,0.2552 q -0.317708,1.2448 -1.145833,1.901 -0.822917,0.6511 -2.015625,0.6511 -1.234375,0 -2.010417,-0.5 -0.770833,-0.5052 -1.177083,-1.4584 -0.401042,-0.9531 -0.401042,-2.0468 0,-1.1928 0.453125,-2.0782 0.458334,-0.8906 1.296875,-1.3489 0.84375,-0.4636 1.854167,-0.4636 1.145833,0 1.927083,0.5834 0.78125,0.5833 1.088542,1.6406 l -0.994792,0.2344 q -0.265625,-0.8334 -0.770833,-1.2136 -0.505208,-0.3802 -1.270833,-0.3802 -0.880209,0 -1.473959,0.4219 -0.588541,0.4219 -0.828125,1.1354 -0.239583,0.7083 -0.239583,1.4635 0,0.974 0.28125,1.7032 0.286458,0.7239 0.885417,1.0833 0.598958,0.3594 1.296875,0.3594 0.848958,0 1.4375,-0.4896 0.588541,-0.4896 0.796875,-1.4531 z"
             style="font-size:10.66666698px;line-height:1.25;stroke-width:1.06666672"
             id="path904"
             inkscape:connector-curvature="0" />
        </g>
        <g
           aria-label="C"
           style="color:#000000;font-style:normal;font-variant:normal;font-weight:normal;font-stretch:normal;font-size:12.80000019px;line-height:0%;font-family:Arial;-inkscape-font-specification:Arial;text-indent:0;text-align:center;text-decoration:none;text-decoration-line:none;letter-spacing:0px;word-spacing:0px;text-transform:none;writing-mode:lr-tb;direction:ltr;baseline-shift:baseline;text-anchor:middle;display:inline;overflow:visible;visibility:visible;fill:#000000;fill-opacity:1;fill-rule:nonzero;stroke:none;stroke-width:1.06666672;marker:none;enable-background:accumulate"
           id="text6497">
          <path
             d="m 79.896983,4207.7165 1.010417,0.2552 q -0.317709,1.2448 -1.145834,1.901 -0.822916,0.6511 -2.015625,0.6511 -1.234375,0 -2.010417,-0.5 -0.770833,-0.5052 -1.177083,-1.4584 -0.401042,-0.9531 -0.401042,-2.0468 0,-1.1928 0.453125,-2.0782 0.458334,-0.8906 1.296875,-1.3489 0.84375,-0.4636 1.854167,-0.4636 1.145834,0 1.927084,0.5834 0.78125,0.5833 1.088541,1.6406 l -0.994791,0.2344 q -0.265625,-0.8334 -0.770834,-1.2136 -0.505208,-0.3802 -1.270833,-0.3802 -0.880209,0 -1.473959,0.4219 -0.588541,0.4219 -0.828125,1.1354 -0.239583,0.7083 -0.239583,1.4635 0,0.974 0.28125,1.7032 0.286458,0.7239 0.885417,1.0833 0.598958,0.3594 1.296875,0.3594 0.848958,0 1.4375,-0.4896 0.588542,-0.4896 0.796875,-1.4531 z"
             style="font-size:10.66666698px;line-height:1.25;stroke-width:1.06666672"
             id="path907"
             inkscape:connector-curvature="0" />
        </g>
        <g
           aria-label="C"
           style="color:#000000;font-style:normal;font-variant:normal;font-weight:normal;font-stretch:normal;font-size:12.80000019px;line-height:0%;font-family:Arial;-inkscape-font-specification:Arial;text-indent:0;text-align:center;text-decoration:none;text-decoration-line:none;letter-spacing:0px;word-spacing:0px;text-transform:none;writing-mode:lr-tb;direction:ltr;baseline-shift:baseline;text-anchor:middle;display:inline;overflow:visible;visibility:visible;fill:#000000;fill-opacity:1;fill-rule:nonzero;stroke:none;stroke-width:1.06666672;marker:none;enable-background:accumulate"
           id="text6501">
          <path
             d="m 132.81036,4207.7165 1.01042,0.2552 q -0.31771,1.2448 -1.14584,1.901 -0.82291,0.6511 -2.01562,0.6511 -1.23438,0 -2.01042,-0.5 -0.77083,-0.5052 -1.17708,-1.4584 -0.40104,-0.9531 -0.40104,-2.0468 0,-1.1928 0.45312,-2.0782 0.45833,-0.8906 1.29688,-1.3489 0.84375,-0.4636 1.85416,-0.4636 1.14584,0 1.92709,0.5834 0.78125,0.5833 1.08854,1.6406 l -0.99479,0.2344 q -0.26563,-0.8334 -0.77084,-1.2136 -0.50521,-0.3802 -1.27083,-0.3802 -0.88021,0 -1.47396,0.4219 -0.58854,0.4219 -0.82812,1.1354 -0.23959,0.7083 -0.23959,1.4635 0,0.974 0.28125,1.7032 0.28646,0.7239 0.88542,1.0833 0.59896,0.3594 1.29687,0.3594 0.84896,0 1.4375,-0.4896 0.58855,-0.4896 0.79688,-1.4531 z"
             style="font-size:10.66666698px;line-height:1.25;stroke-width:1.06666672"
             id="path910"
             inkscape:connector-curvature="0" />
        </g>
        <g
           aria-label="D"
           style="color:#000000;font-style:normal;font-variant:normal;font-weight:normal;font-stretch:normal;font-size:12.80000019px;line-height:0%;font-family:Arial;-inkscape-font-specification:Arial;text-indent:0;text-align:center;text-decoration:none;text-decoration-line:none;letter-spacing:0px;word-spacing:0px;text-transform:none;writing-mode:lr-tb;direction:ltr;baseline-shift:baseline;text-anchor:middle;display:inline;overflow:visible;visibility:visible;fill:#000000;fill-opacity:1;fill-rule:nonzero;stroke:none;stroke-width:1.06666672;marker:none;enable-background:accumulate"
           id="text6505">
          <path
             d="m 29.094734,4210.3936 v -7.6355 h 2.630209 q 0.890625,0 1.359375,0.1094 0.65625,0.1511 1.119791,0.5469 0.604167,0.5104 0.901042,1.3073 0.302083,0.7916 0.302083,1.8125 0,0.8698 -0.203125,1.5416 -0.203125,0.6719 -0.520833,1.1146 -0.317708,0.4375 -0.697917,0.6927 -0.375,0.25 -0.911458,0.3802 -0.53125,0.1303 -1.223958,0.1303 z m 1.010417,-0.9011 h 1.630208 q 0.755209,0 1.182292,-0.1406 0.432292,-0.1406 0.6875,-0.3958 0.359375,-0.3594 0.557292,-0.9636 0.203125,-0.6094 0.203125,-1.4739 0,-1.198 -0.395834,-1.8386 -0.390625,-0.6458 -0.953125,-0.8646 -0.40625,-0.1562 -1.307291,-0.1562 h -1.604167 z"
             style="font-size:10.66666698px;line-height:1.25;stroke-width:1.06666672"
             id="path913"
             inkscape:connector-curvature="0" />
        </g>
        <g
           aria-label="E"
           style="color:#000000;font-style:normal;font-variant:normal;font-weight:normal;font-stretch:normal;font-size:12.80000019px;line-height:0%;font-family:Arial;-inkscape-font-specification:Arial;text-indent:0;text-align:center;text-decoration:none;text-decoration-line:none;letter-spacing:0px;word-spacing:0px;text-transform:none;writing-mode:lr-tb;direction:ltr;baseline-shift:baseline;text-anchor:middle;display:inline;overflow:visible;visibility:visible;fill:#000000;fill-opacity:1;fill-rule:nonzero;stroke:none;stroke-width:1.06666672;marker:none;enable-background:accumulate"
           id="text6509">
          <path
             d="m 36.966289,4210.3936 v -7.6355 h 5.520834 v 0.9011 h -4.510417 v 2.3385 h 4.223959 v 0.8959 h -4.223959 v 2.5989 h 4.6875 v 0.9011 z"
             style="font-size:10.66666698px;line-height:1.25;stroke-width:1.06666672"
             id="path916"
             inkscape:connector-curvature="0" />
        </g>
        <g
           aria-label="F"
           style="color:#000000;font-style:normal;font-variant:normal;font-weight:normal;font-stretch:normal;font-size:12.80000019px;line-height:0%;font-family:Arial;-inkscape-font-specification:Arial;text-indent:0;text-align:center;text-decoration:none;text-decoration-line:none;letter-spacing:0px;word-spacing:0px;text-transform:none;writing-mode:lr-tb;direction:ltr;baseline-shift:baseline;text-anchor:middle;display:inline;overflow:visible;visibility:visible;fill:#000000;fill-opacity:1;fill-rule:nonzero;stroke:none;stroke-width:1.06666672;marker:none;enable-background:accumulate"
           id="text6513">
          <path
             d="m 44.858678,4210.3936 v -7.6355 h 5.151042 v 0.9011 h -4.140625 v 2.3646 h 3.583333 v 0.901 h -3.583333 v 3.4688 z"
             style="font-size:10.66666698px;line-height:1.25;stroke-width:1.06666672"
             id="path919"
             inkscape:connector-curvature="0" />
        </g>
        <g
           aria-label="G"
           style="color:#000000;font-style:normal;font-variant:normal;font-weight:normal;font-stretch:normal;font-size:12.80000019px;line-height:0%;font-family:Arial;-inkscape-font-specification:Arial;text-indent:0;text-align:center;text-decoration:none;text-decoration-line:none;letter-spacing:0px;word-spacing:0px;text-transform:none;writing-mode:lr-tb;direction:ltr;baseline-shift:baseline;text-anchor:middle;display:inline;overflow:visible;visibility:visible;fill:#000000;fill-opacity:1;fill-rule:nonzero;stroke:none;stroke-width:1.06666672;marker:none;enable-background:accumulate"
           id="text6517">
          <path
             d="m 55.05315,4207.3988 v -0.8959 l 3.234375,-0.01 v 2.8334 q -0.744791,0.5937 -1.536458,0.8958 -0.791667,0.2969 -1.625,0.2969 -1.125,0 -2.046875,-0.4792 -0.916667,-0.4844 -1.385417,-1.3958 -0.46875,-0.9115 -0.46875,-2.0365 0,-1.1146 0.463542,-2.0781 0.46875,-0.9688 1.34375,-1.4375 0.875,-0.4688 2.015625,-0.4688 0.828125,0 1.494792,0.2709 0.671875,0.2656 1.052083,0.7448 0.380208,0.4791 0.578125,1.25 l -0.911458,0.25 q -0.171875,-0.5834 -0.427084,-0.9167 -0.255208,-0.3333 -0.729166,-0.5313 -0.473959,-0.2031 -1.052084,-0.2031 -0.692708,0 -1.197917,0.2136 -0.505208,0.2083 -0.817708,0.552 -0.307292,0.3438 -0.479167,0.7552 -0.291666,0.7084 -0.291666,1.5365 0,1.0208 0.348958,1.7083 0.354167,0.6875 1.026042,1.0209 0.671875,0.3333 1.427083,0.3333 0.65625,0 1.28125,-0.25 0.625,-0.2552 0.947917,-0.5417 v -1.4218 z"
             style="font-size:10.66666698px;line-height:1.25;stroke-width:1.06666672"
             id="path922"
             inkscape:connector-curvature="0" />
        </g>
        <g
           aria-label="A"
           style="color:#000000;font-style:normal;font-variant:normal;font-weight:normal;font-stretch:normal;font-size:12.80000019px;line-height:0%;font-family:Arial;-inkscape-font-specification:Arial;text-indent:0;text-align:center;text-decoration:none;text-decoration-line:none;letter-spacing:0px;word-spacing:0px;text-transform:none;writing-mode:lr-tb;direction:ltr;baseline-shift:baseline;text-anchor:middle;display:inline;overflow:visible;visibility:visible;fill:#000000;fill-opacity:1;fill-rule:nonzero;stroke:none;stroke-width:1.06666672;marker:none;enable-background:accumulate"
           id="text6521">
          <path
             d="m 58.784077,4210.3936 2.932291,-7.6355 h 1.088542 l 3.125,7.6355 h -1.151042 l -0.890625,-2.3125 h -3.192708 l -0.838542,2.3125 z m 2.203125,-3.1355 h 2.588541 l -0.796875,-2.1145 q -0.364583,-0.9636 -0.541666,-1.5834 -0.145834,0.7344 -0.411459,1.4584 z"
             style="font-size:10.66666698px;line-height:1.25;stroke-width:1.06666672"
             id="path925"
             inkscape:connector-curvature="0" />
        </g>
        <g
           aria-label="B"
           style="color:#000000;font-style:normal;font-variant:normal;font-weight:normal;font-stretch:normal;font-size:12.80000019px;line-height:0%;font-family:Arial;-inkscape-font-specification:Arial;text-indent:0;text-align:center;text-decoration:none;text-decoration-line:none;letter-spacing:0px;word-spacing:0px;text-transform:none;writing-mode:lr-tb;direction:ltr;baseline-shift:baseline;text-anchor:middle;display:inline;overflow:visible;visibility:visible;fill:#000000;fill-opacity:1;fill-rule:nonzero;stroke:none;stroke-width:1.06666672;marker:none;enable-background:accumulate"
           id="text6525">
          <path
             d="m 67.140007,4210.3936 v -7.6355 h 2.864583 q 0.875,0 1.401042,0.2344 0.53125,0.2292 0.828125,0.7136 0.302083,0.4791 0.302083,1.0052 0,0.4895 -0.265625,0.9218 -0.265625,0.4323 -0.802083,0.698 0.692708,0.2031 1.0625,0.6927 0.375,0.4895 0.375,1.1562 0,0.5365 -0.229167,1 -0.223958,0.4583 -0.557291,0.7083 -0.333334,0.25 -0.838542,0.3803 -0.5,0.125 -1.229167,0.125 z m 1.010417,-4.4271 h 1.651041 q 0.671875,0 0.963542,-0.089 0.385417,-0.1146 0.578125,-0.3802 0.197917,-0.2656 0.197917,-0.6666 0,-0.3803 -0.182292,-0.6667 -0.182292,-0.2917 -0.520833,-0.3958 -0.338542,-0.1094 -1.161459,-0.1094 h -1.526041 z m 0,3.526 h 1.901041 q 0.489584,0 0.6875,-0.036 0.348959,-0.062 0.583334,-0.2084 0.234375,-0.1458 0.385416,-0.4219 0.151042,-0.2812 0.151042,-0.6458 0,-0.4271 -0.21875,-0.7396 -0.21875,-0.3177 -0.609375,-0.4427 -0.385417,-0.1302 -1.114583,-0.1302 h -1.765625 z"
             style="font-size:10.66666698px;line-height:1.25;stroke-width:1.06666672"
             id="path928"
             inkscape:connector-curvature="0" />
        </g>
        <g
           aria-label="D"
           style="color:#000000;font-style:normal;font-variant:normal;font-weight:normal;font-stretch:normal;font-size:12.80000019px;line-height:0%;font-family:Arial;-inkscape-font-specification:Arial;text-indent:0;text-align:center;text-decoration:none;text-decoration-line:none;letter-spacing:0px;word-spacing:0px;text-transform:none;writing-mode:lr-tb;direction:ltr;baseline-shift:baseline;text-anchor:middle;display:inline;overflow:visible;visibility:visible;fill:#000000;fill-opacity:1;fill-rule:nonzero;stroke:none;stroke-width:1.06666672;marker:none;enable-background:accumulate"
           id="text6529">
          <path
             d="m 82.008125,4210.3936 v -7.6355 h 2.630209 q 0.890625,0 1.359375,0.1094 0.65625,0.1511 1.119791,0.5469 0.604167,0.5104 0.901042,1.3073 0.302083,0.7916 0.302083,1.8125 0,0.8698 -0.203125,1.5416 -0.203125,0.6719 -0.520833,1.1146 -0.317708,0.4375 -0.697917,0.6927 -0.375,0.25 -0.911458,0.3802 -0.53125,0.1303 -1.223958,0.1303 z m 1.010417,-0.9011 h 1.630208 q 0.755209,0 1.182292,-0.1406 0.432292,-0.1406 0.6875,-0.3958 0.359375,-0.3594 0.557292,-0.9636 0.203125,-0.6094 0.203125,-1.4739 0,-1.198 -0.395834,-1.8386 -0.390625,-0.6458 -0.953125,-0.8646 -0.40625,-0.1562 -1.307291,-0.1562 h -1.604167 z"
             style="font-size:10.66666698px;line-height:1.25;stroke-width:1.06666672"
             id="path931"
             inkscape:connector-curvature="0" />
        </g>
        <g
           aria-label="E"
           style="color:#000000;font-style:normal;font-variant:normal;font-weight:normal;font-stretch:normal;font-size:12.80000019px;line-height:0%;font-family:Arial;-inkscape-font-specification:Arial;text-indent:0;text-align:center;text-decoration:none;text-decoration-line:none;letter-spacing:0px;word-spacing:0px;text-transform:none;writing-mode:lr-tb;direction:ltr;baseline-shift:baseline;text-anchor:middle;display:inline;overflow:visible;visibility:visible;fill:#000000;fill-opacity:1;fill-rule:nonzero;stroke:none;stroke-width:1.06666672;marker:none;enable-background:accumulate"
           id="text6533">
          <path
             d="m 89.879669,4210.3936 v -7.6355 h 5.520834 v 0.9011 h -4.510417 v 2.3385 h 4.223958 v 0.8959 h -4.223958 v 2.5989 h 4.6875 v 0.9011 z"
             style="font-size:10.66666698px;line-height:1.25;stroke-width:1.06666672"
             id="path934"
             inkscape:connector-curvature="0" />
        </g>
        <g
           aria-label="F"
           style="color:#000000;font-style:normal;font-variant:normal;font-weight:normal;font-stretch:normal;font-size:12.80000019px;line-height:0%;font-family:Arial;-inkscape-font-specification:Arial;text-indent:0;text-align:center;text-decoration:none;text-decoration-line:none;letter-spacing:0px;word-spacing:0px;text-transform:none;writing-mode:lr-tb;direction:ltr;baseline-shift:baseline;text-anchor:middle;display:inline;overflow:visible;visibility:visible;fill:#000000;fill-opacity:1;fill-rule:nonzero;stroke:none;stroke-width:1.06666672;marker:none;enable-background:accumulate"
           id="text6537">
          <path
             d="m 97.772062,4210.3936 v -7.6355 h 5.151038 v 0.9011 h -4.140622 v 2.3646 h 3.583332 v 0.901 h -3.583332 v 3.4688 z"
             style="font-size:10.66666698px;line-height:1.25;stroke-width:1.06666672"
             id="path937"
             inkscape:connector-curvature="0" />
        </g>
        <g
           aria-label="G"
           style="color:#000000;font-style:normal;font-variant:normal;font-weight:normal;font-stretch:normal;font-size:12.80000019px;line-height:0%;font-family:Arial;-inkscape-font-specification:Arial;text-indent:0;text-align:center;text-decoration:none;text-decoration-line:none;letter-spacing:0px;word-spacing:0px;text-transform:none;writing-mode:lr-tb;direction:ltr;baseline-shift:baseline;text-anchor:middle;display:inline;overflow:visible;visibility:visible;fill:#000000;fill-opacity:1;fill-rule:nonzero;stroke:none;stroke-width:1.06666672;marker:none;enable-background:accumulate"
           id="text6541">
          <path
             d="m 107.96654,4207.3988 v -0.8959 l 3.23437,-0.01 v 2.8334 q -0.74479,0.5937 -1.53646,0.8958 -0.79166,0.2969 -1.625,0.2969 -1.125,0 -2.04687,-0.4792 -0.91667,-0.4844 -1.38542,-1.3958 -0.46875,-0.9115 -0.46875,-2.0365 0,-1.1146 0.46354,-2.0781 0.46875,-0.9688 1.34375,-1.4375 0.875,-0.4688 2.01563,-0.4688 0.82812,0 1.49479,0.2709 0.67188,0.2656 1.05208,0.7448 0.38021,0.4791 0.57813,1.25 l -0.91146,0.25 q -0.17187,-0.5834 -0.42708,-0.9167 -0.25521,-0.3333 -0.72917,-0.5313 -0.47396,-0.2031 -1.05208,-0.2031 -0.69271,0 -1.19792,0.2136 -0.50521,0.2083 -0.81771,0.552 -0.30729,0.3438 -0.47916,0.7552 -0.29167,0.7084 -0.29167,1.5365 0,1.0208 0.34896,1.7083 0.35416,0.6875 1.02604,1.0209 0.67187,0.3333 1.42708,0.3333 0.65625,0 1.28125,-0.25 0.625,-0.2552 0.94792,-0.5417 v -1.4218 z"
             style="font-size:10.66666698px;line-height:1.25;stroke-width:1.06666672"
             id="path940"
             inkscape:connector-curvature="0" />
        </g>
        <g
           aria-label="A"
           style="color:#000000;font-style:normal;font-variant:normal;font-weight:normal;font-stretch:normal;font-size:12.80000019px;line-height:0%;font-family:Arial;-inkscape-font-specification:Arial;text-indent:0;text-align:center;text-decoration:none;text-decoration-line:none;letter-spacing:0px;word-spacing:0px;text-transform:none;writing-mode:lr-tb;direction:ltr;baseline-shift:baseline;text-anchor:middle;display:inline;overflow:visible;visibility:visible;fill:#000000;fill-opacity:1;fill-rule:nonzero;stroke:none;stroke-width:1.06666672;marker:none;enable-background:accumulate"
           id="text6545">
          <path
             d="m 111.69746,4210.3936 2.9323,-7.6355 h 1.08854 l 3.125,7.6355 h -1.15104 l -0.89063,-2.3125 h -3.19271 l -0.83854,2.3125 z m 2.20313,-3.1355 h 2.58854 l -0.79687,-2.1145 q -0.36459,-0.9636 -0.54167,-1.5834 -0.14583,0.7344 -0.41146,1.4584 z"
             style="font-size:10.66666698px;line-height:1.25;stroke-width:1.06666672"
             id="path943"
             inkscape:connector-curvature="0" />
        </g>
        <g
           aria-label="B"
           style="color:#000000;font-style:normal;font-variant:normal;font-weight:normal;font-stretch:normal;font-size:12.80000019px;line-height:0%;font-family:Arial;-inkscape-font-specification:Arial;text-indent:0;text-align:center;text-decoration:none;text-decoration-line:none;letter-spacing:0px;word-spacing:0px;text-transform:none;writing-mode:lr-tb;direction:ltr;baseline-shift:baseline;text-anchor:middle;display:inline;overflow:visible;visibility:visible;fill:#000000;fill-opacity:1;fill-rule:nonzero;stroke:none;stroke-width:1.06666672;marker:none;enable-background:accumulate"
           id="text6549">
          <path
             d="m 120.05339,4210.3936 v -7.6355 h 2.86458 q 0.875,0 1.40105,0.2344 0.53125,0.2292 0.82812,0.7136 0.30208,0.4791 0.30208,1.0052 0,0.4895 -0.26562,0.9218 -0.26563,0.4323 -0.80208,0.698 0.6927,0.2031 1.0625,0.6927 0.375,0.4895 0.375,1.1562 0,0.5365 -0.22917,1 -0.22396,0.4583 -0.55729,0.7083 -0.33334,0.25 -0.83854,0.3803 -0.5,0.125 -1.22917,0.125 z m 1.01042,-4.4271 h 1.65104 q 0.67187,0 0.96354,-0.089 0.38542,-0.1146 0.57813,-0.3802 0.19791,-0.2656 0.19791,-0.6666 0,-0.3803 -0.18229,-0.6667 -0.18229,-0.2917 -0.52083,-0.3958 -0.33854,-0.1094 -1.16146,-0.1094 h -1.52604 z m 0,3.526 h 1.90104 q 0.48958,0 0.6875,-0.036 0.34896,-0.062 0.58333,-0.2084 0.23438,-0.1458 0.38542,-0.4219 0.15104,-0.2812 0.15104,-0.6458 0,-0.4271 -0.21875,-0.7396 -0.21875,-0.3177 -0.60937,-0.4427 -0.38542,-0.1302 -1.11459,-0.1302 h -1.76562 z"
             style="font-size:10.66666698px;line-height:1.25;stroke-width:1.06666672"
             id="path946"
             inkscape:connector-curvature="0" />
        </g>
      </g>
    </g>
  </g>
</svg>
